Coordinates
version=1
nRows=34
nColumns=34
inDegrees=no

Units are S.I. units (second, meters, Newtons, ...)
If the header above contains a line with 'inDegrees', this indicates whether rotational values are in degrees (yes) or radians (no).

endheader
time	pelvis_tilt	pelvis_list	pelvis_rotation	pelvis_tx	pelvis_ty	pelvis_tz	hip_flexion_r	hip_adduction_r	hip_rotation_r	knee_angle_r	ankle_angle_r	subtalar_angle_r	mtp_angle_r	hip_flexion_l	hip_adduction_l	hip_rotation_l	knee_angle_l	ankle_angle_l	subtalar_angle_l	mtp_angle_l	lumbar_extension	lumbar_bending	lumbar_rotation	arm_flex_r	arm_add_r	arm_rot_r	elbow_flex_r	pro_sup_r	arm_flex_l	arm_add_l	arm_rot_l	elbow_flex_l	pro_sup_l
170.019	0.297845	0.177136	3.08933	-0.0871451	0.687781	-0.00775655	-0.0715485	-0.451005	-0.698186	0.371174	0.436162	0.31097	0	1.36868	-0.761663	-0.244183	1.6031	0.397263	-0.0886331	0	0.0971805	0.13003	0.182428	4.52848	-1.00737	4.07001	0.763759	1.34083	1.32472	-0.540199	-0.0480126	1.05317	2.09
170.039	0.298054	0.172375	3.08972	-0.0870025	0.687888	-0.00748927	-0.076823	-0.453822	-0.698692	0.360829	0.43268	0.316072	0	1.36196	-0.758106	-0.252316	1.60251	0.399117	-0.0902195	0	0.0980018	0.12471	0.18207	4.53273	-1.00793	4.07498	0.761222	1.34113	1.32765	-0.54024	-0.0465218	1.04408	2.09
170.059	0.298357	0.168701	3.08978	-0.0868525	0.688052	-0.00729839	-0.0816589	-0.455062	-0.698754	0.35042	0.42905	0.320506	0	1.3566	-0.755364	-0.258714	1.60177	0.400533	-0.0918801	0	0.0987781	0.120529	0.181971	4.53712	-1.00858	4.08013	0.758493	1.34127	1.33057	-0.540222	-0.045175	1.03471	2.09
170.079	0.298437	0.166341	3.0896	-0.086721	0.688292	-0.0071864	-0.0866221	-0.454338	-0.698621	0.33956	0.425195	0.324142	0	1.35248	-0.753586	-0.263073	1.60095	0.401569	-0.0932906	0	0.0992044	0.117705	0.182052	4.54154	-1.00932	4.08528	0.755642	1.34139	1.33347	-0.54011	-0.0440307	1.02509	2.09
170.099	0.298127	0.165109	3.08934	-0.0866192	0.688605	-0.00713413	-0.0920548	-0.451865	-0.698443	0.328139	0.421154	0.327066	0	1.34921	-0.752635	-0.26567	1.60012	0.40231	-0.0943196	0	0.0991621	0.116036	0.182225	4.54587	-1.01014	4.0903	0.752773	1.3416	1.33639	-0.539883	-0.0430477	1.01521	2.09
170.119	0.29737	0.164683	3.08914	-0.0865496	0.688976	-0.00711678	-0.0981237	-0.448069	-0.698292	0.316179	0.416994	0.329379	0	1.3464	-0.752256	-0.26697	1.5993	0.402834	-0.0949707	0	0.0986528	0.115181	0.182405	4.55006	-1.01096	4.09512	0.749986	1.34196	1.33936	-0.539529	-0.0421314	1.0051	2.09
170.139	0.296206	0.164731	3.08912	-0.0865084	0.689389	-0.00711281	-0.104817	-0.443406	-0.698191	0.303812	0.412784	0.33112	0	1.34377	-0.752165	-0.267432	1.59849	0.40319	-0.0953416	0	0.0977686	0.114806	0.182531	4.55405	-1.01173	4.09969	0.74735	1.34246	1.3424	-0.539048	-0.0411696	0.994756	2.09
170.159	0.294755	0.164971	3.08932	-0.0864889	0.689825	-0.00710747	-0.11195	-0.438316	-0.698135	0.291288	0.408593	0.332301	0	1.34116	-0.752109	-0.26745	1.59769	0.403403	-0.0955967	0	0.0966667	0.114636	0.182567	4.55777	-1.01241	4.10398	0.744891	1.34307	1.34555	-0.538457	-0.04006	0.984222	2.09
170.179	0.293154	0.16519	3.08974	-0.0864838	0.690271	-0.00709355	-0.119246	-0.433177	-0.698111	0.278932	0.404487	0.332914	0	1.33849	-0.751906	-0.267321	1.59684	0.403479	-0.0959057	0	0.0954981	0.114477	0.182512	4.56119	-1.013	4.10799	0.74259	1.34374	1.34878	-0.53779	-0.0387308	0.973533	2.09
170.199	0.291533	0.165244	3.09034	-0.0864873	0.690716	-0.00706957	-0.126395	-0.428308	-0.698107	0.267113	0.400538	0.332991	0	1.33575	-0.751458	-0.267267	1.59594	0.403419	-0.0964093	0	0.0943809	0.114206	0.182396	4.56425	-1.01353	4.11173	0.740398	1.34443	1.35212	-0.537093	-0.0371499	0.96274	2.09
170.219	0.289979	0.165046	3.09104	-0.0864946	0.691153	-0.00703708	-0.133127	-0.423952	-0.698112	0.256172	0.396827	0.332612	0	1.33293	-0.75075	-0.26744	1.59495	0.403221	-0.0971851	0	0.0933762	0.11375	0.182262	4.56693	-1.01404	4.11519	0.73827	1.34512	1.35556	-0.536418	-0.0353229	0.9519	2.09
170.239	0.288529	0.164556	3.09178	-0.0865026	0.691581	-0.00699802	-0.139263	-0.420271	-0.698119	0.246362	0.393434	0.331892	0	1.33002	-0.749822	-0.267947	1.59385	0.402886	-0.09824	0	0.0924866	0.113074	0.182153	4.56922	-1.01459	4.11839	0.736181	1.34584	1.3591	-0.535804	-0.0332889	0.941087	2.09
170.259	0.287175	0.163766	3.0925	-0.0865088	0.691999	-0.00695316	-0.144735	-0.417343	-0.698125	0.23781	0.390424	0.330951	0	1.32696	-0.748738	-0.268856	1.59265	0.402421	-0.0995238	0	0.0916712	0.112163	0.182099	4.57114	-1.0152	4.12135	0.734148	1.3466	1.36273	-0.535274	-0.0311107	0.930385	2.09
170.279	0.285878	0.162689	3.0932	-0.0865115	0.692412	-0.00690196	-0.149577	-0.415167	-0.698129	0.230512	0.387838	0.329879	0	1.32372	-0.747551	-0.270208	1.59133	0.401837	-0.100959	0	0.0908709	0.111017	0.182108	4.57274	-1.01589	4.12411	0.73222	1.34741	1.36643	-0.534823	-0.0288634	0.919887	2.09
170.299	0.2846	0.161346	3.09389	-0.0865094	0.692825	-0.00684368	-0.153866	-0.413692	-0.698131	0.224369	0.385685	0.328738	0	1.32023	-0.746296	-0.272023	1.58987	0.401151	-0.102473	0	0.0900389	0.109642	0.182177	4.57409	-1.01665	4.12673	0.730455	1.3482	1.37014	-0.534421	-0.0266172	0.90967	2.09
170.319	0.283321	0.15977	3.09456	-0.0865021	0.693244	-0.00677881	-0.157682	-0.412829	-0.698132	0.219238	0.383938	0.327555	0	1.31647	-0.74499	-0.274292	1.58827	0.400378	-0.104018	0	0.0891551	0.10806	0.182304	4.57527	-1.01746	4.12927	0.728898	1.34889	1.37382	-0.534026	-0.0244183	0.899781	2.09
170.339	0.282045	0.158001	3.09521	-0.0864896	0.693676	-0.00670993	-0.161066	-0.412482	-0.698133	0.214978	0.382553	0.326343	0	1.31246	-0.743651	-0.276978	1.5865	0.399535	-0.10557	0	0.0882318	0.106304	0.182496	4.57635	-1.0183	4.1318	0.727553	1.3494	1.37742	-0.533599	-0.0222707	0.89021	2.09
170.359	0.280808	0.156087	3.09581	-0.0864722	0.694127	-0.00664143	-0.164	-0.412563	-0.698133	0.211489	0.381473	0.325138	0	1.30826	-0.742311	-0.280012	1.58455	0.39863	-0.107131	0	0.087313	0.104418	0.182777	4.57736	-1.01918	4.13436	0.726382	1.34966	1.38095	-0.53312	-0.020129	0.880894	2.09
170.379	0.279654	0.154081	3.0963	-0.0864499	0.6946	-0.00657843	-0.166441	-0.412986	-0.698132	0.208697	0.380642	0.323979	0	1.30396	-0.741019	-0.283297	1.58244	0.397668	-0.108706	0	0.0864511	0.102456	0.183175	4.5783	-1.02008	4.13703	0.725309	1.34964	1.38442	-0.532597	-0.0179054	0.871716	2.09
170.399	0.27863	0.152036	3.09663	-0.0864226	0.695094	-0.00652508	-0.168339	-0.413679	-0.698132	0.206558	0.380015	0.322926	0	1.29969	-0.739829	-0.286714	1.5802	0.39664	-0.110306	0	0.085706	0.100473	0.183706	4.57914	-1.02105	4.13982	0.724238	1.34936	1.38787	-0.532058	-0.0154946	0.862552	2.09
170.419	0.27776	0.150007	3.09677	-0.0863902	0.695606	-0.00648311	-0.169689	-0.414567	-0.698132	0.205015	0.379557	0.322037	0	1.29557	-0.738783	-0.290133	1.57787	0.395538	-0.111936	0	0.08512	0.0985195	0.184362	4.57985	-1.0221	4.14275	0.723083	1.34885	1.39137	-0.531542	-0.0128055	0.853305	2.09
170.439	0.277014	0.148043	3.09676	-0.0863563	0.696132	-0.006451	-0.170595	-0.415558	-0.698132	0.203968	0.379236	0.321345	0	1.29166	-0.737888	-0.293425	1.57551	0.394353	-0.113588	0	0.0846876	0.0966351	0.185091	4.58041	-1.02326	4.14578	0.721786	1.34819	1.39494	-0.531086	-0.00977308	0.843936	2.09
170.459	0.276314	0.146175	3.09666	-0.0863252	0.696669	-0.00642483	-0.171241	-0.416567	-0.698132	0.203286	0.379026	0.320825	0	1.28797	-0.737116	-0.296494	1.57316	0.393082	-0.115262	0	0.0843582	0.0948339	0.185822	4.58082	-1.02452	4.14891	0.720332	1.34742	1.3986	-0.530711	-0.00636539	0.834464	2.09
170.479	0.275578	0.144417	3.09656	-0.0863006	0.697214	-0.00639969	-0.171815	-0.417529	-0.698132	0.20285	0.378913	0.320416	0	1.28446	-0.736407	-0.299275	1.57085	0.391728	-0.116969	0	0.0840751	0.0931155	0.186478	4.58116	-1.02588	4.15209	0.718745	1.34656	1.40233	-0.530423	-0.00260506	0.824977	2.09
170.499	0.274729	0.142763	3.09654	-0.086285	0.697766	-0.0063709	-0.17247	-0.418412	-0.698132	0.202584	0.378894	0.320043	0	1.28106	-0.735681	-0.301754	1.5686	0.390294	-0.118736	0	0.0837807	0.0914613	0.186993	4.58148	-1.02732	4.1553	0.717073	1.34562	1.40609	-0.530209	0.00143662	0.815599	2.09
170.519	0.273704	0.141188	3.09665	-0.0862796	0.698326	-0.00633495	-0.173313	-0.419227	-0.698132	0.202458	0.378973	0.319623	0	1.27769	-0.734859	-0.303971	1.56637	0.388791	-0.120603	0	0.083419	0.089838	0.187325	4.58188	-1.02881	4.15854	0.715371	1.34458	1.40982	-0.530041	0.00565367	0.806448	2.09
170.539	0.272459	0.139658	3.09694	-0.0862846	0.6989	-0.00629003	-0.174388	-0.420009	-0.698132	0.202487	0.379155	0.319087	0	1.27424	-0.733873	-0.306009	1.56413	0.387226	-0.122611	0	0.0829398	0.0882088	0.187464	4.58244	-1.03034	4.16187	0.71368	1.34341	1.41349	-0.52988	0.00992586	0.797606	2.09
170.559	0.270963	0.138138	3.0974	-0.0862992	0.699495	-0.00623606	-0.175691	-0.420807	-0.698132	0.20272	0.379445	0.318384	0	1.27058	-0.732688	-0.307966	1.56182	0.385606	-0.124785	0	0.0822969	0.0865428	0.187422	4.58322	-1.0319	4.16532	0.712012	1.34209	1.41705	-0.529693	0.0141511	0.789096	2.09
170.579	0.269197	0.136606	3.09802	-0.0863217	0.700121	-0.0061744	-0.177182	-0.421668	-0.698132	0.203222	0.379851	0.317493	0	1.26665	-0.731304	-0.309929	1.55938	0.383926	-0.127116	0	0.0814442	0.0848215	0.187235	4.58422	-1.03351	4.16896	0.710354	1.34063	1.42051	-0.529454	0.0182786	0.780884	2.09
170.599	0.267144	0.135047	3.09877	-0.0863497	0.700788	-0.00610732	-0.178808	-0.422637	-0.698132	0.204066	0.380387	0.316425	0	1.26236	-0.72976	-0.311954	1.55676	0.382173	-0.129561	0	0.080334	0.0830398	0.186954	4.58543	-1.03518	4.17284	0.708675	1.33903	1.42391	-0.529157	0.0223315	0.772881	2.09
170.619	0.264782	0.133453	3.09959	-0.0863814	0.701503	-0.00603741	-0.180522	-0.423755	-0.698132	0.205325	0.381073	0.315216	0	1.25769	-0.728112	-0.31407	1.55396	0.380322	-0.132053	0	0.0789115	0.0811974	0.186634	4.5868	-1.03694	4.17699	0.706946	1.3373	1.4273	-0.528811	0.0264106	0.764962	2.09
170.639	0.262107	0.13183	3.10044	-0.0864156	0.702274	-0.00596741	-0.182259	-0.425045	-0.698133	0.207064	0.381924	0.313926	0	1.25263	-0.72644	-0.316266	1.55097	0.378352	-0.134491	0	0.0771444	0.0793155	0.186323	4.58829	-1.0388	4.18139	0.705155	1.33545	1.43072	-0.528441	0.0306265	0.757027	2.09
170.659	0.25914	0.130193	3.10127	-0.0864514	0.703103	-0.0059001	-0.183934	-0.426527	-0.698133	0.209346	0.382953	0.31263	0	1.24723	-0.724818	-0.318517	1.5478	0.376243	-0.136777	0	0.0750327	0.0774256	0.186057	4.58982	-1.04079	4.18597	0.703318	1.33348	1.43419	-0.528083	0.0350817	0.749006	2.09
170.679	0.25592	0.128545	3.10205	-0.086488	0.703992	-0.00583797	-0.185453	-0.428225	-0.698134	0.212226	0.384165	0.311399	0	1.24154	-0.723294	-0.320815	1.54447	0.373982	-0.138849	0	0.0726011	0.0755515	0.185855	4.59135	-1.04292	4.19064	0.701473	1.33137	1.43773	-0.527776	0.0398599	0.740852	2.09
